<svg width="100" height="100" viewBox="0 0 100 100" fill="none" xmlns="http://www.w3.org/2000/svg">
<circle cx="50" cy="50" r="50" fill="#41308D"/>
<path d="M32.1885 50.4717L27.8428 54.9883V67H23.1553V31.4531H27.8428V49.0312L43.6387 31.4531H49.3027L35.3135 47.1514L50.4014 67H44.7861L32.1885 50.4717ZM81.0654 50.374C81.0654 53.8571 80.4795 56.9007 79.3076 59.5049C78.1357 62.0928 76.4756 64.0703 74.3271 65.4375C72.1787 66.8047 69.6722 67.4883 66.8076 67.4883C64.0081 67.4883 61.526 66.8047 59.3613 65.4375C57.1966 64.054 55.512 62.0928 54.3076 59.5537C53.1195 56.9984 52.5091 54.0443 52.4766 50.6914V48.1279C52.4766 44.71 53.0706 41.6908 54.2588 39.0703C55.4469 36.4499 57.1234 34.4479 59.2881 33.0645C61.4691 31.6647 63.9593 30.9648 66.7588 30.9648C69.6071 30.9648 72.1136 31.6566 74.2783 33.04C76.4593 34.4072 78.1357 36.401 79.3076 39.0215C80.4795 41.6257 81.0654 44.6611 81.0654 48.1279V50.374ZM76.4023 48.0791C76.4023 43.8636 75.556 40.6328 73.8633 38.3867C72.1706 36.1243 69.8024 34.9932 66.7588 34.9932C63.7965 34.9932 61.4609 36.1243 59.752 38.3867C58.0592 40.6328 57.1885 43.7578 57.1396 47.7617V50.374C57.1396 54.4593 57.9941 57.6738 59.7031 60.0176C61.4284 62.3451 63.7965 63.5088 66.8076 63.5088C69.835 63.5088 72.1787 62.4102 73.8389 60.2129C75.499 57.9993 76.3535 54.8337 76.4023 50.7158V48.0791Z" fill="white"/>
</svg>
