<svg width="150" height="150" viewBox="0 0 150 150" fill="none" xmlns="http://www.w3.org/2000/svg">
<circle cx="75" cy="75" r="75" fill="#41308D"/>
<path d="M44.0547 75.5547L37.1016 82.7812V102H29.6016V45.125H37.1016V73.25L62.375 45.125H71.4375L49.0547 70.2422L73.1953 102H64.2109L44.0547 75.5547ZM122.258 75.3984C122.258 80.9714 121.32 85.8411 119.445 90.0078C117.57 94.1484 114.914 97.3125 111.477 99.5C108.039 101.688 104.029 102.781 99.4453 102.781C94.9661 102.781 90.9948 101.688 87.5312 99.5C84.0677 97.2865 81.3724 94.1484 79.4453 90.0859C77.5443 85.9974 76.5677 81.2708 76.5156 75.9062V71.8047C76.5156 66.3359 77.4661 61.5052 79.3672 57.3125C81.2682 53.1198 83.9505 49.9167 87.4141 47.7031C90.9036 45.4635 94.888 44.3438 99.3672 44.3438C103.924 44.3438 107.935 45.4505 111.398 47.6641C114.888 49.8516 117.57 53.0417 119.445 57.2344C121.32 61.401 122.258 66.2578 122.258 71.8047V75.3984ZM114.797 71.7266C114.797 64.9818 113.443 59.8125 110.734 56.2188C108.026 52.599 104.237 50.7891 99.3672 50.7891C94.6276 50.7891 90.8906 52.599 88.1562 56.2188C85.4479 59.8125 84.0547 64.8125 83.9766 71.2188V75.3984C83.9766 81.9349 85.3438 87.0781 88.0781 90.8281C90.8385 94.5521 94.6276 96.4141 99.4453 96.4141C104.289 96.4141 108.039 94.6562 110.695 91.1406C113.352 87.599 114.719 82.5339 114.797 75.9453V71.7266Z" fill="white"/>
</svg>
